<?xml version="1.0" encoding="utf-8"?>
<!-- Generator: Adobe Illustrator 16.0.4, SVG Export Plug-In . SVG Version: 6.00 Build 0)  -->
<!DOCTYPE svg PUBLIC "-//W3C//DTD SVG 1.1//EN" "http://www.w3.org/Graphics/SVG/1.1/DTD/svg11.dtd">
<svg version="1.1" id="Layer_1" xmlns="http://www.w3.org/2000/svg" xmlns:xlink="http://www.w3.org/1999/xlink" x="0px" y="0px"
	 width="800px" height="153px" viewBox="0 0 800 153" enable-background="new 0 0 800 153" xml:space="preserve">
<g>
	<path fill="#2100FF" d="M63.056,76.601c-7.268,26.799-19.872,29.524-28.162,29.524c-6.246,0-11.81-3.747-11.81-10.447
		c0-4.088,0.568-8.062,1.363-12.946c0,0,3.861-23.96,3.861-28.275c0-1.817-1.022-2.725-2.271-2.725c-0.909,0-2.158,0.341-3.18,1.022
		l-0.454-0.795c0,0,6.246-4.883,17.147-4.883c5.11,0,12.832,1.59,13.172,10.901c0,1.249,0,2.498-0.227,3.861l-3.634,26.686
		c-0.227,1.476-0.568,4.77-0.568,6.7c0.113,1.704,0.681,2.271,1.59,2.271c5.224,0,14.989-22.37,14.989-41.334
		c0-3.066-0.454-5.792-1.249-7.268c0,0,3.52-1.817,11.128-1.817c7.722,0,13.854,2.612,14.194,10.901c0,1.363,0,2.498-0.227,3.974
		l-5.451,38.382c-3.634,25.323-23.279,34.18-43.605,34.18c-14.421,0-21.235-4.997-21.235-12.718c0-5.224,4.656-9.198,10.788-9.198
		c4.315,0,7.041,1.704,8.63,3.066c-2.498,3.293-4.315,8.062-4.315,11.924c0,3.293,1.363,5.791,4.997,5.791
		c10.674,0,15.216-9.652,17.828-22.03l7.381-34.748H63.056z"/>
	<path fill="#2100FF" d="M151.74,47.077c7.154,0,12.945,2.612,13.286,10.901c0,1.363,0,2.498-0.228,3.974l-4.201,29.638
		c-0.228,1.59-0.341,2.953-0.341,3.975c0.113,2.953,1.817,4.088,5.337,4.088l0.455,0.909c-20.895,0-32.364,5.564-32.364,5.564
		l6.132-29.524h-0.682c-7.268,26.799-19.872,29.524-28.162,29.524c-6.246,0-11.81-3.747-11.81-10.447
		c0-4.088,0.568-8.062,1.363-12.946c0,0,3.861-23.96,3.861-28.275c0-1.817-1.022-2.725-2.271-2.725c-0.909,0-2.158,0.341-3.18,1.022
		l-0.454-0.795c0,0,6.246-4.883,17.147-4.883c5.11,0,12.832,1.59,13.172,10.901c0,1.249,0,2.498-0.227,3.861l-3.634,26.686
		c-0.227,1.476-0.568,4.77-0.568,6.7c0.114,1.704,0.682,2.271,1.59,2.271c5.224,0,14.989-22.37,14.989-41.334
		c0-3.066-0.454-5.792-1.249-7.268C139.703,48.894,144.132,47.077,151.74,47.077z"/>
	<path fill="#2100FF" d="M204.427,67.517c3.634-13.172,10.674-20.44,21.689-20.44c11.469,0,18.169,9.312,18.169,21.576
		c0,21.008-16.579,37.473-40.653,37.473c-1.363,0-2.839-0.113-3.975-0.34l-2.498,17.374c-0.682,4.996,0.454,8.062,6.019,8.062
		l-0.114,1.022h-38.95l0.114-1.022c4.542,0,7.04-3.066,7.722-8.062l9.312-63.591c0.681-4.429-1.136-6.019-5.337-6.019l-0.341-0.909
		c17.26,0,31.682-5.564,31.682-5.564l-3.748,20.44H204.427z M201.815,94.316c0,7.949,1.363,10.901,4.088,10.901
		c7.495,0,11.242-24.528,11.242-37.474c0-10.106-2.158-12.377-4.202-12.377C207.379,55.366,201.815,77.623,201.815,94.316z"/>
	<path fill="#2100FF" d="M280.848,67.517c3.634-13.172,10.674-20.44,21.689-20.44c11.469,0,18.169,9.312,18.169,21.576
		c0,21.008-16.579,37.473-40.653,37.473c-1.363,0-2.839-0.113-3.975-0.34l-2.498,17.374c-0.682,4.996,0.454,8.062,6.019,8.062
		l-0.114,1.022h-38.95l0.114-1.022c4.542,0,7.041-3.066,7.722-8.062l9.312-63.591c0.681-4.429-1.136-6.019-5.337-6.019l-0.341-0.909
		c17.26,0,31.682-5.564,31.682-5.564l-3.748,20.44H280.848z M278.236,94.316c0,7.949,1.363,10.901,4.088,10.901
		c7.495,0,11.242-24.528,11.242-37.474c0-10.106-2.158-12.377-4.202-12.377C283.8,55.366,278.236,77.623,278.236,94.316z"/>
	<path fill="#2100FF" d="M353.634,95.792c-0.227,1.476-0.341,2.385-0.341,3.066c0,1.704,0.909,2.612,2.271,2.612
		c1.022,0,2.044-0.341,3.18-1.022l0.454,0.795c0,0-6.246,4.883-17.147,4.883c-5.11,0-12.832-1.59-13.172-10.901
		c0-1.249,0-2.385,0.227-3.861l4.315-31c0.113-0.795,0.227-1.817,0.227-2.271c0-3.179-1.704-4.315-5.337-4.315l-0.34-1.022
		c17.26,0,32.59-5.678,32.59-5.678L353.634,95.792z M336.714,33.904c0-7.041,4.997-12.719,14.649-12.719
		c7.949,0,11.696,4.202,11.696,9.766c0,6.927-5.11,12.377-14.762,12.377C340.348,43.329,336.714,39.241,336.714,33.904z"/>
	<path fill="#2100FF" d="M408.14,99.767c6.019,0,10.447-1.931,15.217-4.997l0.454,0.568c-6.473,7.154-16.011,10.788-27.935,10.788
		c-19.191,0-28.843-9.652-28.843-24.188c0-19.077,17.488-34.861,41.107-34.861c15.558,0,23.052,7.381,23.052,14.762
		c0,7.495-7.153,15.216-24.755,15.216c-3.634,0-8.403-0.34-12.264-1.249c-0.228,1.363-0.341,3.52-0.341,5.337
		C393.832,92.726,398.715,99.767,408.14,99.767z M411.206,53.549c0-3.975-1.362-5.564-3.066-5.564
		c-3.747,0-11.242,8.971-13.854,26.913C402.462,74.103,411.206,62.975,411.206,53.549z"/>
	<path fill="#FF3D00" d="M451.175,106.125c-7.154,0-12.945-2.612-13.286-10.901c0-1.363,0-2.498,0.227-3.974l4.202-29.638
		c0.227-1.59,0.341-2.953,0.341-3.975c-0.114-2.953-1.817-4.088-5.338-4.088l-0.454-0.909c20.895,0,32.363-5.564,32.363-5.564
		l-6.132,29.524h0.682c7.268-26.799,19.531-29.524,27.821-29.524c6.245,0,11.81,3.747,11.81,10.447
		c0,4.088-0.567,8.062-1.362,12.946c0,0-3.861,23.96-3.861,28.275c0,1.817,1.022,2.725,2.271,2.725c0.908,0,2.157-0.341,3.18-1.022
		l0.454,0.795c0,0-6.246,4.883-17.147,4.883c-5.109,0-12.831-1.59-13.172-10.901c0-1.249,0-2.498,0.227-3.861l3.634-26.686
		c0.228-1.476,0.568-4.77,0.568-6.7c-0.114-1.704-0.682-2.271-1.59-2.271c-5.224,0-14.649,22.37-14.649,41.334
		c0,3.066,0.455,5.792,1.249,7.268C463.211,104.309,458.783,106.125,451.175,106.125z"/>
	<path fill="#FF3D00" d="M565.41,47.077c7.154,0,12.945,2.612,13.286,10.901c0,1.363,0,2.498-0.228,3.974l-4.201,29.638
		c-0.228,1.59-0.341,2.953-0.341,3.975c0.113,2.953,1.816,4.088,5.337,4.088l0.454,0.909c-20.894,0-32.363,5.564-32.363,5.564
		l6.132-29.524h-0.681c-7.268,26.799-19.873,29.524-28.162,29.524c-6.246,0-11.81-3.747-11.81-10.447
		c0-4.088,0.567-8.062,1.362-12.946c0,0,3.861-23.96,3.861-28.275c0-1.817-1.022-2.725-2.271-2.725c-0.908,0-2.157,0.341-3.18,1.022
		l-0.454-0.795c0,0,6.245-4.883,17.146-4.883c5.11,0,12.832,1.59,13.173,10.901c0,1.249,0,2.498-0.228,3.861l-3.634,26.686
		c-0.227,1.476-0.567,4.77-0.567,6.7c0.113,1.704,0.682,2.271,1.59,2.271c5.224,0,14.989-22.37,14.989-41.334
		c0-3.066-0.454-5.792-1.249-7.268C553.373,48.894,557.802,47.077,565.41,47.077z"/>
	<path fill="#FF3D00" d="M589.369,24.365c17.261,0,32.591-5.678,32.591-5.678l-7.268,48.148h0.567
		c3.861-12.491,11.469-19.759,21.235-19.759c11.355,0,17.828,7.722,17.828,19.986c0,20.894-16.693,39.063-40.767,39.063
		c-21.235,0-25.777-10.106-25.777-20.554c0-3.066,0.227-5.791,0.682-8.971l6.473-45.422c0.681-4.429-1.136-5.792-5.224-5.792
		L589.369,24.365z M611.059,97.95c0,3.52,0.34,7.268,2.839,7.268c6.586,0,13.626-30.092,13.626-44.627
		c0-4.77-1.362-6.019-2.952-6.019C618.78,54.571,611.059,76.715,611.059,97.95z"/>
</g>
<g>
	<path d="M319.067,130.057c-0.042,0.271-0.062,0.459-0.062,0.584c0,0.313,0.167,0.48,0.417,0.48c0.188,0,0.375-0.062,0.584-0.188
		l0.083,0.146c0,0-1.064,0.897-3.068,0.897c-0.939,0-2.359-0.396-2.359-2.066c0-0.522,0.062-1.044,0.271-1.691h-0.167
		c-0.626,2.484-1.753,3.757-3.987,3.757c-2.108,0-3.256-1.711-3.256-3.966c0-3.861,2.63-6.888,7.055-6.888
		c1.44,0,2.421,0.542,3.841,0.542c1.21,0,1.941-0.542,1.941-0.542L319.067,130.057z M315.248,123.293
		c0-1.461-0.25-2.004-0.751-2.004c-1.378,0-2.066,4.509-2.066,6.888c0,1.858,0.396,2.275,0.772,2.275
		C314.225,130.453,315.248,126.111,315.248,123.293z"/>
	<path d="M335.26,115.528l0.062,0.083c-2.672,3.131-4.133,7.348-4.133,12.441c0,1.983,0.313,5.01,1.398,6.93l-0.062,0.083
		c-2.818-1.482-5.573-4.509-5.573-8.684C326.952,120.997,331.356,117.303,335.26,115.528z"/>
	<path d="M342.229,122.25c0-0.543-0.375-0.96-1.252-0.96c-0.626,0-1.294,0.417-1.294,1.19c0,2.275,4.863,2.672,4.863,5.74
		c0,2.338-2.004,3.757-5.657,3.757c-3.486,0-4.509-1.294-4.509-2.484c0-0.897,0.731-1.607,1.733-1.607
		c0.542,0,1.022,0.188,1.377,0.522c-0.292,0.355-0.542,0.939-0.542,1.482c0,0.981,0.563,1.879,1.711,1.879
		c0.918,0,1.565-0.585,1.565-1.357c0-2.234-4.738-2.672-4.738-5.699c0-2.233,2.171-3.59,5.218-3.59c2.714,0,3.966,0.939,3.966,2.129
		c0,0.793-0.626,1.377-1.586,1.377c-0.626,0-1.273-0.313-1.607-0.918C341.937,123.293,342.229,122.73,342.229,122.25z"/>
	<path d="M358.257,125.673c0,3.131-2.839,6.304-7.369,6.304c-2.964,0-5.218-1.753-5.218-4.55c0-3.131,2.88-6.304,7.389-6.304
		C356.002,121.123,358.257,122.876,358.257,125.673z M353.435,124.003c0-1.711-0.334-2.713-0.897-2.713
		c-1.064,0-2.087,5.051-2.087,7.765c0,1.753,0.355,2.755,0.918,2.755C352.433,131.81,353.435,126.717,353.435,124.003z"/>
	<path d="M364.014,127.301c0,1.983,0.793,3.507,2.526,3.507c1.148,0,2.087-0.334,3.006-0.897l0.063,0.083
		c-1.315,1.336-2.902,1.983-5.094,1.983c-3.548,0-5.427-1.774-5.427-4.488c0-3.465,3.34-6.367,7.431-6.367
		c2.651,0,4.154,1.043,4.154,2.463c0,1.064-0.835,1.857-2.254,1.857c-0.647,0-1.44-0.229-1.837-0.626
		c0.438-0.563,0.876-1.565,0.876-2.359c0-0.647-0.208-1.169-0.814-1.169C365.413,121.29,364.014,123.961,364.014,127.301z"/>
	<path d="M376.284,130.078c-0.042,0.271-0.062,0.438-0.062,0.563c0,0.313,0.167,0.48,0.417,0.48c0.188,0,0.375-0.062,0.584-0.188
		l0.083,0.146c0,0-1.148,0.897-3.152,0.897c-0.939,0-2.359-0.292-2.422-2.004c0-0.229,0-0.438,0.042-0.709l0.793-5.699
		c0.021-0.146,0.042-0.334,0.042-0.417c0-0.584-0.313-0.793-0.981-0.793l-0.063-0.188c3.173,0,5.991-1.043,5.991-1.043
		L376.284,130.078z M373.174,118.701c0-1.294,0.918-2.338,2.693-2.338c1.461,0,2.15,0.772,2.15,1.795
		c0,1.273-0.939,2.275-2.713,2.275C373.842,120.434,373.174,119.682,373.174,118.701z"/>
	<path d="M390.288,130.057c-0.042,0.271-0.062,0.459-0.062,0.584c0,0.313,0.167,0.48,0.417,0.48c0.188,0,0.375-0.062,0.584-0.188
		l0.083,0.146c0,0-1.064,0.897-3.068,0.897c-0.939,0-2.359-0.396-2.359-2.066c0-0.522,0.062-1.044,0.271-1.691h-0.167
		c-0.626,2.484-1.753,3.757-3.987,3.757c-2.108,0-3.256-1.711-3.256-3.966c0-3.861,2.63-6.888,7.055-6.888
		c1.44,0,2.421,0.542,3.841,0.542c1.21,0,1.941-0.542,1.941-0.542L390.288,130.057z M386.468,123.293
		c0-1.461-0.25-2.004-0.751-2.004c-1.378,0-2.066,4.509-2.066,6.888c0,1.858,0.396,2.275,0.772,2.275
		C385.445,130.453,386.468,126.111,386.468,123.293z"/>
	<path d="M397.527,130.078c-0.042,0.271-0.062,0.438-0.062,0.563c0,0.313,0.167,0.48,0.417,0.48c0.188,0,0.376-0.062,0.585-0.188
		l0.083,0.146c0,0-1.148,0.897-3.152,0.897c-0.939,0-2.359-0.292-2.421-2.004c0-0.229,0-0.438,0.042-0.709l1.544-10.917
		c0.021-0.146,0.042-0.334,0.042-0.417c0-0.584-0.313-0.793-0.981-0.793l-0.063-0.188c3.173,0,5.991-1.043,5.991-1.043
		L397.527,130.078z"/>
	<path d="M399.049,135.066l-0.042-0.083c2.63-3.131,4.112-7.348,4.112-12.42c0-2.004-0.313-5.031-1.398-6.951l0.083-0.083
		c2.797,1.482,5.532,4.509,5.532,8.684C407.336,129.598,402.952,133.292,399.049,135.066z"/>
	<path d="M418.248,127.301c0,1.983,0.793,3.507,2.526,3.507c1.147,0,2.087-0.334,3.006-0.897l0.062,0.083
		c-1.315,1.336-2.901,1.983-5.094,1.983c-3.548,0-5.427-1.774-5.427-4.488c0-3.465,3.34-6.367,7.431-6.367
		c2.651,0,4.154,1.043,4.154,2.463c0,1.064-0.835,1.857-2.255,1.857c-0.646,0-1.439-0.229-1.837-0.626
		c0.438-0.563,0.877-1.565,0.877-2.359c0-0.647-0.209-1.169-0.813-1.169C419.646,121.29,418.248,123.961,418.248,127.301z"/>
	<path d="M437.887,125.673c0,3.131-2.839,6.304-7.369,6.304c-2.964,0-5.218-1.753-5.218-4.55c0-3.131,2.88-6.304,7.39-6.304
		C435.632,121.123,437.887,122.876,437.887,125.673z M433.064,124.003c0-1.711-0.334-2.713-0.897-2.713
		c-1.064,0-2.087,5.051-2.087,7.765c0,1.753,0.354,2.755,0.918,2.755C432.062,131.81,433.064,126.717,433.064,124.003z"/>
	<path d="M441.807,131.977c-1.314,0-2.379-0.48-2.442-2.004c0-0.25,0-0.459,0.042-0.73l0.772-5.448
		c0.042-0.292,0.062-0.542,0.062-0.73c-0.021-0.543-0.334-0.751-0.981-0.751l-0.083-0.167c3.841,0,5.949-1.023,5.949-1.023
		l-1.127,5.427h0.125c1.336-4.926,3.59-5.427,5.114-5.427c1.147,0,2.171,0.689,2.171,1.92c0,1.148-0.438,2.359-0.668,3.507h0.125
		c1.189-4.759,3.319-5.427,5.01-5.427c1.148,0,2.171,0.689,2.171,1.92c0,0.751-0.104,1.482-0.25,2.38c0,0-0.71,4.404-0.71,5.197
		c0,0.334,0.188,0.501,0.417,0.501c0.167,0,0.396-0.062,0.585-0.188l0.083,0.146c0,0-1.147,0.897-3.151,0.897
		c-0.939,0-2.359-0.292-2.422-2.004c0-0.229,0-0.459,0.042-0.709l0.668-4.906c0.042-0.271,0.104-0.876,0.104-1.231
		c-0.021-0.313-0.126-0.417-0.292-0.417c-0.939,0-2.672,4.446-2.672,7.598c0,0.563,0.083,1.064,0.229,1.336
		c0,0-0.877,0.334-2.275,0.334c-1.315,0-2.38-0.48-2.442-2.004c0-0.25,0-0.459,0.042-0.73l0.668-4.885
		c0.041-0.271,0.104-0.876,0.104-1.231c-0.021-0.313-0.126-0.417-0.293-0.417c-0.96,0-2.692,4.112-2.692,7.598
		c0,0.563,0.083,1.064,0.229,1.336C444.02,131.643,443.205,131.977,441.807,131.977z"/>
	<path d="M462.466,131.977c-1.314,0-2.38-0.48-2.442-2.004c0-0.25,0-0.459,0.042-0.73l0.772-5.448
		c0.042-0.292,0.062-0.542,0.062-0.73c-0.021-0.543-0.334-0.751-0.98-0.751l-0.084-0.167c3.841,0,5.949-1.023,5.949-1.023
		l-1.127,5.427h0.125c1.336-4.926,3.59-5.427,5.114-5.427c1.147,0,2.171,0.689,2.171,1.92c0,1.148-0.438,2.359-0.668,3.507h0.125
		c1.189-4.759,3.319-5.427,5.01-5.427c1.148,0,2.171,0.689,2.171,1.92c0,0.751-0.104,1.482-0.251,2.38c0,0-0.709,4.404-0.709,5.197
		c0,0.334,0.188,0.501,0.417,0.501c0.167,0,0.396-0.062,0.585-0.188l0.083,0.146c0,0-1.147,0.897-3.151,0.897
		c-0.939,0-2.359-0.292-2.422-2.004c0-0.229,0-0.459,0.042-0.709l0.668-4.906c0.042-0.271,0.104-0.876,0.104-1.231
		c-0.021-0.313-0.125-0.417-0.293-0.417c-0.938,0-2.672,4.446-2.672,7.598c0,0.563,0.084,1.064,0.23,1.336
		c0,0-0.877,0.334-2.275,0.334c-1.315,0-2.38-0.48-2.442-2.004c0-0.25,0-0.459,0.042-0.73l0.668-4.885
		c0.041-0.271,0.104-0.876,0.104-1.231c-0.021-0.313-0.125-0.417-0.292-0.417c-0.96,0-2.692,4.112-2.692,7.598
		c0,0.563,0.083,1.064,0.229,1.336C464.679,131.643,463.864,131.977,462.466,131.977z"/>
	<path d="M491.579,130.057c-0.042,0.271-0.062,0.459-0.062,0.584c0,0.313,0.167,0.48,0.417,0.48c0.188,0,0.376-0.062,0.585-0.188
		l0.083,0.146c0,0-1.064,0.897-3.068,0.897c-0.939,0-2.358-0.396-2.358-2.066c0-0.522,0.062-1.044,0.271-1.691h-0.167
		c-0.626,2.484-1.754,3.757-3.987,3.757c-2.108,0-3.256-1.711-3.256-3.966c0-3.861,2.63-6.888,7.056-6.888
		c1.439,0,2.421,0.542,3.84,0.542c1.211,0,1.941-0.542,1.941-0.542L491.579,130.057z M487.76,123.293
		c0-1.461-0.251-2.004-0.752-2.004c-1.378,0-2.066,4.509-2.066,6.888c0,1.858,0.396,2.275,0.772,2.275
		C486.736,130.453,487.76,126.111,487.76,123.293z"/>
	<path d="M496.918,131.977c-1.314,0-2.379-0.48-2.442-2.004c0-0.25,0-0.459,0.042-0.73l0.772-5.448
		c0.042-0.292,0.062-0.542,0.062-0.73c-0.021-0.543-0.334-0.751-0.981-0.751l-0.083-0.167c3.841,0,5.949-1.023,5.949-1.023
		l-1.127,5.427h0.125c1.336-4.926,3.59-5.427,5.114-5.427c1.147,0,2.171,0.689,2.171,1.92c0,0.751-0.104,1.482-0.251,2.38
		c0,0-0.709,4.404-0.709,5.197c0,0.334,0.188,0.501,0.417,0.501c0.167,0,0.396-0.062,0.585-0.188l0.083,0.146
		c0,0-1.148,0.897-3.152,0.897c-0.938,0-2.358-0.292-2.421-2.004c0-0.229,0-0.459,0.042-0.709l0.668-4.906
		c0.041-0.271,0.104-0.876,0.104-1.231c-0.021-0.313-0.126-0.417-0.293-0.417c-0.96,0-2.692,4.112-2.692,7.598
		c0,0.563,0.083,1.064,0.229,1.336C499.131,131.643,498.316,131.977,496.918,131.977z"/>
	<path d="M511.108,131.977c-2.108,0-3.256-1.711-3.256-3.966c0-3.861,3.048-6.888,7.473-6.888c0.251,0,0.521,0.021,0.73,0.062
		l0.438-3.068c0.104-0.751-0.25-0.981-0.981-0.981l-0.062-0.188c3.194,0,5.949-1.043,5.949-1.043l-2.004,14.152
		c-0.042,0.271-0.062,0.459-0.062,0.584c0,0.313,0.167,0.48,0.417,0.48c0.188,0,0.376-0.062,0.585-0.188l0.083,0.146
		c0,0-1.064,0.897-3.068,0.897c-0.939,0-2.358-0.396-2.358-2.066c0-0.522,0.062-1.044,0.271-1.691h-0.167
		C514.47,130.704,513.342,131.977,511.108,131.977z M515.576,123.293c0-1.461-0.251-2.004-0.752-2.004
		c-1.378,0-2.066,4.509-2.066,6.888c0,1.858,0.396,2.275,0.772,2.275C514.553,130.453,515.576,126.111,515.576,123.293z"/>
	<path d="M532.206,130.078c-0.041,0.271-0.062,0.438-0.062,0.563c0,0.313,0.167,0.48,0.418,0.48c0.188,0,0.376-0.062,0.584-0.188
		l0.084,0.146c0,0-1.148,0.897-3.152,0.897c-0.939,0-2.358-0.292-2.421-2.004c0-0.229,0-0.438,0.041-0.709l1.545-10.917
		c0.021-0.146,0.042-0.334,0.042-0.417c0-0.584-0.313-0.793-0.981-0.793l-0.062-0.188c3.173,0,5.991-1.043,5.991-1.043
		L532.206,130.078z"/>
	<path d="M539.676,130.078c-0.041,0.271-0.062,0.438-0.062,0.563c0,0.313,0.167,0.48,0.418,0.48c0.188,0,0.376-0.062,0.584-0.188
		l0.084,0.146c0,0-1.148,0.897-3.152,0.897c-0.939,0-2.358-0.292-2.421-2.004c0-0.229,0-0.438,0.042-0.709l0.793-5.699
		c0.021-0.146,0.041-0.334,0.041-0.417c0-0.584-0.312-0.793-0.98-0.793l-0.062-0.188c3.173,0,5.99-1.043,5.99-1.043L539.676,130.078
		z M536.566,118.701c0-1.294,0.918-2.338,2.692-2.338c1.461,0,2.15,0.772,2.15,1.795c0,1.273-0.939,2.275-2.714,2.275
		C537.234,120.434,536.566,119.682,536.566,118.701z"/>
	<path d="M545.227,131.977c-1.314,0-2.379-0.48-2.442-2.004c0-0.25,0-0.459,0.042-0.73l0.772-5.448
		c0.042-0.292,0.062-0.542,0.062-0.73c-0.021-0.543-0.334-0.751-0.981-0.751l-0.083-0.167c3.841,0,5.949-1.023,5.949-1.023
		l-1.127,5.427h0.125c1.336-4.926,3.59-5.427,5.114-5.427c1.147,0,2.171,0.689,2.171,1.92c0,0.751-0.104,1.482-0.251,2.38
		c0,0-0.709,4.404-0.709,5.197c0,0.334,0.188,0.501,0.417,0.501c0.167,0,0.396-0.062,0.585-0.188l0.083,0.146
		c0,0-1.148,0.897-3.152,0.897c-0.938,0-2.358-0.292-2.421-2.004c0-0.229,0-0.459,0.042-0.709l0.668-4.906
		c0.041-0.271,0.104-0.876,0.104-1.231c-0.021-0.313-0.126-0.417-0.293-0.417c-0.96,0-2.692,4.112-2.692,7.598
		c0,0.563,0.083,1.064,0.229,1.336C547.439,131.643,546.625,131.977,545.227,131.977z"/>
	<path d="M563.301,130.808c1.105,0,1.92-0.355,2.797-0.918l0.083,0.104c-1.189,1.315-2.943,1.983-5.135,1.983
		c-3.527,0-5.302-1.774-5.302-4.446c0-3.507,3.215-6.408,7.557-6.408c2.859,0,4.237,1.357,4.237,2.713
		c0,1.378-1.315,2.797-4.551,2.797c-0.668,0-1.545-0.062-2.255-0.229c-0.041,0.25-0.062,0.647-0.062,0.981
		C560.67,129.514,561.567,130.808,563.301,130.808z M563.864,122.312c0-0.73-0.251-1.023-0.563-1.023
		c-0.689,0-2.067,1.649-2.547,4.947C562.257,126.091,563.864,124.045,563.864,122.312z"/>
	<path d="M581.894,121.707h-2.004l-0.981,6.889c-0.752,5.344-3.778,8.6-7.535,8.6c-1.921,0-3.048-1.002-3.048-2.191
		c0-1.064,0.96-1.795,2.213-1.795c0.73,0,1.419,0.25,1.878,0.626c-0.501,0.563-1.064,1.586-1.064,2.4
		c0,0.417,0.146,0.751,0.522,0.751c0.751,0,1.523-1.503,1.878-4.133l1.482-11.125h-0.897l0.021-0.188h0.877
		c0.521-3.653,3.486-5.928,7.243-5.928c2.004,0,3.402,1.002,3.402,2.192c0,1.21-1.044,2.004-2.421,2.004
		c-0.752,0-1.545-0.396-1.963-0.835c0.502-0.563,1.002-1.586,1.002-2.4c0-0.418-0.104-0.752-0.521-0.752
		c-0.688,0-1.378,0.939-1.753,3.57l-0.313,2.15h2.004L581.894,121.707z"/>
	<path d="M594.373,125.673c0,3.131-2.839,6.304-7.369,6.304c-2.964,0-5.218-1.753-5.218-4.55c0-3.131,2.88-6.304,7.39-6.304
		C592.118,121.123,594.373,122.876,594.373,125.673z M589.551,124.003c0-1.711-0.334-2.713-0.897-2.713
		c-1.064,0-2.087,5.051-2.087,7.765c0,1.753,0.354,2.755,0.918,2.755C588.549,131.81,589.551,126.717,589.551,124.003z"/>
	<path d="M603.053,123.94c0-0.25-0.125-0.605-0.501-0.605c-1.128,0-2.275,3.925-2.275,6.972c0,0.563,0.083,1.064,0.229,1.336
		c0,0-0.814,0.334-2.213,0.334c-1.314,0-2.379-0.48-2.442-2.004c0-0.25,0-0.459,0.042-0.73l0.772-5.448
		c0.042-0.292,0.062-0.542,0.062-0.73c-0.021-0.543-0.334-0.751-0.981-0.751l-0.083-0.167c3.841,0,5.949-1.023,5.949-1.023
		l-1.148,5.427h0.126c0.918-4.029,2.588-5.427,4.091-5.427c1.189,0,1.983,0.772,1.983,1.732c0,1.211-0.877,2.484-2.526,2.484
		c-0.479,0-1.085-0.146-1.419-0.417C602.844,124.713,603.053,124.295,603.053,123.94z"/>
	<path d="M620.247,126.55c-1.336,4.926-3.653,5.427-5.177,5.427c-1.148,0-2.171-0.689-2.171-1.92c0-0.751,0.104-1.482,0.251-2.38
		c0,0,0.709-4.404,0.709-5.197c0-0.334-0.188-0.501-0.417-0.501c-0.167,0-0.396,0.062-0.585,0.188l-0.083-0.146
		c0,0,1.147-0.897,3.151-0.897c0.939,0,2.359,0.292,2.422,2.004c0,0.229,0,0.459-0.042,0.709l-0.668,4.906
		c-0.042,0.271-0.104,0.876-0.104,1.231c0.021,0.313,0.125,0.417,0.293,0.417c0.96,0,2.755-4.112,2.755-7.598
		c0-0.563-0.083-1.064-0.229-1.336c0,0,0.646-0.334,2.046-0.334c1.419,0,2.546,0.48,2.608,2.004c0,0.25,0,0.459-0.041,0.73
		l-1.002,7.056c-0.668,4.655-4.279,6.283-8.016,6.283c-2.651,0-3.903-0.918-3.903-2.338c0-0.96,0.855-1.69,1.982-1.69
		c0.794,0,1.294,0.313,1.587,0.563c-0.459,0.605-0.793,1.482-0.793,2.192c0,0.605,0.25,1.064,0.918,1.064
		c1.962,0,2.797-1.774,3.277-4.049l1.356-6.388H620.247z"/>
	<path d="M638.654,125.673c0,3.131-2.839,6.304-7.369,6.304c-2.964,0-5.218-1.753-5.218-4.55c0-3.131,2.88-6.304,7.39-6.304
		C636.399,121.123,638.654,122.876,638.654,125.673z M633.832,124.003c0-1.711-0.334-2.713-0.897-2.713
		c-1.064,0-2.087,5.051-2.087,7.765c0,1.753,0.354,2.755,0.918,2.755C632.83,131.81,633.832,126.717,633.832,124.003z"/>
	<path d="M649.859,121.123c1.315,0,2.38,0.48,2.442,2.004c0,0.25,0,0.459-0.042,0.73l-0.772,5.448
		c-0.041,0.292-0.062,0.542-0.062,0.73c0.021,0.543,0.334,0.751,0.981,0.751l0.083,0.167c-3.841,0-5.948,1.023-5.948,1.023
		l1.127-5.427h-0.125c-1.336,4.926-3.653,5.427-5.178,5.427c-1.147,0-2.17-0.689-2.17-1.92c0-0.751,0.104-1.482,0.25-2.38
		c0,0,0.71-4.404,0.71-5.197c0-0.334-0.188-0.501-0.418-0.501c-0.167,0-0.396,0.062-0.584,0.188l-0.084-0.146
		c0,0,1.148-0.897,3.152-0.897c0.939,0,2.358,0.292,2.421,2.004c0,0.229,0,0.459-0.041,0.709l-0.668,4.906
		c-0.042,0.271-0.104,0.876-0.104,1.231c0.021,0.313,0.125,0.417,0.292,0.417c0.96,0,2.756-4.112,2.756-7.598
		c0-0.563-0.084-1.064-0.23-1.336C647.646,121.457,648.461,121.123,649.859,121.123z"/>
	<path d="M661.503,123.94c0-0.25-0.126-0.605-0.501-0.605c-1.127,0-2.275,3.925-2.275,6.972c0,0.563,0.083,1.064,0.229,1.336
		c0,0-0.814,0.334-2.213,0.334c-1.314,0-2.38-0.48-2.442-2.004c0-0.25,0-0.459,0.042-0.73l0.772-5.448
		c0.042-0.292,0.062-0.542,0.062-0.73c-0.021-0.543-0.334-0.751-0.98-0.751l-0.084-0.167c3.841,0,5.949-1.023,5.949-1.023
		l-1.148,5.427h0.125c0.919-4.029,2.589-5.427,4.092-5.427c1.189,0,1.983,0.772,1.983,1.732c0,1.211-0.877,2.484-2.526,2.484
		c-0.479,0-1.085-0.146-1.419-0.417C661.294,124.713,661.503,124.295,661.503,123.94z"/>
	<path d="M683.311,125.673c0,3.131-2.839,6.304-7.369,6.304c-2.964,0-5.218-1.753-5.218-4.55c0-3.131,2.88-6.304,7.39-6.304
		C681.056,121.123,683.311,122.876,683.311,125.673z M678.488,124.003c0-1.711-0.334-2.713-0.897-2.713
		c-1.064,0-2.087,5.051-2.087,7.765c0,1.753,0.354,2.755,0.918,2.755C677.486,131.81,678.488,126.717,678.488,124.003z"/>
	<path d="M698.043,123.314c0-1.19,0.919-2.192,2.297-2.192c1.628,0,2.608,1.252,2.608,2.776c0,4.488-3.778,8.078-8.892,8.078
		c-1.629,0-2.568-0.772-2.568-2.087c0-1.211,0.23-2.171,0.543-3.319h-0.125c-1.336,4.884-3.653,5.406-5.177,5.406
		c-1.148,0-2.171-0.689-2.171-1.92c0-0.751,0.104-1.482,0.25-2.38c0,0,0.71-4.404,0.71-5.197c0-0.334-0.188-0.501-0.417-0.501
		c-0.167,0-0.396,0.062-0.585,0.188l-0.083-0.146c0,0,1.147-0.897,3.151-0.897c0.939,0,2.359,0.292,2.422,2.004
		c0,0.229,0,0.459-0.042,0.709l-0.668,4.906c-0.042,0.271-0.104,0.876-0.104,1.231c0,0.292,0.126,0.417,0.292,0.417
		c1.273,0,2.965-5.553,2.965-7.911c0-0.334-0.188-0.501-0.418-0.501c-0.167,0-0.396,0.062-0.584,0.188l-0.084-0.146
		c0,0,1.148-0.897,3.152-0.897c0.939,0,2.358,0.292,2.421,2.004c0,0.229,0,0.459-0.041,0.709l-0.752,5.49
		c-0.042,0.271-0.083,0.605-0.083,0.876c0,0.501,0.146,0.96,0.688,0.96c2.317,0,5.323-2.964,5.323-4.864
		c0-1.21-0.981-1.837-2.171-1.837c-0.46,0-0.939,0.104-1.336,0.334C698.189,124.316,698.043,123.794,698.043,123.314z"/>
	<path d="M706.846,131.977c-1.314,0-2.379-0.48-2.442-2.004c0-0.25,0-0.459,0.042-0.73l0.772-5.448
		c0.042-0.292,0.062-0.542,0.062-0.73c-0.021-0.543-0.334-0.751-0.981-0.751l-0.083-0.167c3.841,0,5.949-1.023,5.949-1.023
		l-1.127,5.427h0.125c1.336-4.926,3.59-5.427,5.114-5.427c1.147,0,2.171,0.689,2.171,1.92c0,0.751-0.104,1.482-0.251,2.38
		c0,0-0.709,4.404-0.709,5.197c0,0.334,0.188,0.501,0.417,0.501c0.167,0,0.396-0.062,0.585-0.188l0.083,0.146
		c0,0-1.148,0.897-3.152,0.897c-0.938,0-2.358-0.292-2.421-2.004c0-0.229,0-0.459,0.042-0.709l0.668-4.906
		c0.041-0.271,0.104-0.876,0.104-1.231c-0.021-0.313-0.126-0.417-0.293-0.417c-0.96,0-2.692,4.112-2.692,7.598
		c0,0.563,0.083,1.064,0.229,1.336C709.059,131.643,708.244,131.977,706.846,131.977z"/>
	<path d="M730.637,122.25c0-0.543-0.376-0.96-1.252-0.96c-0.627,0-1.295,0.417-1.295,1.19c0,2.275,4.864,2.672,4.864,5.74
		c0,2.338-2.004,3.757-5.657,3.757c-3.486,0-4.509-1.294-4.509-2.484c0-0.897,0.73-1.607,1.732-1.607
		c0.543,0,1.023,0.188,1.378,0.522c-0.292,0.355-0.543,0.939-0.543,1.482c0,0.981,0.563,1.879,1.712,1.879
		c0.919,0,1.565-0.585,1.565-1.357c0-2.234-4.738-2.672-4.738-5.699c0-2.233,2.171-3.59,5.219-3.59c2.713,0,3.966,0.939,3.966,2.129
		c0,0.793-0.626,1.377-1.587,1.377c-0.626,0-1.272-0.313-1.606-0.918C730.345,123.293,730.637,122.73,730.637,122.25z"/>
	<path d="M741.633,130.808c1.106,0,1.921-0.355,2.798-0.918l0.083,0.104c-1.189,1.315-2.943,1.983-5.135,1.983
		c-3.527,0-5.302-1.774-5.302-4.446c0-3.507,3.214-6.408,7.556-6.408c2.86,0,4.238,1.357,4.238,2.713
		c0,1.378-1.315,2.797-4.551,2.797c-0.668,0-1.545-0.062-2.255-0.229c-0.041,0.25-0.062,0.647-0.062,0.981
		C739.003,129.514,739.9,130.808,741.633,130.808z M742.197,122.312c0-0.73-0.251-1.023-0.564-1.023
		c-0.688,0-2.066,1.649-2.546,4.947C740.59,126.091,742.197,124.045,742.197,122.312z"/>
	<path d="M754.301,123.94c0-0.25-0.125-0.605-0.501-0.605c-1.128,0-2.275,3.925-2.275,6.972c0,0.563,0.083,1.064,0.229,1.336
		c0,0-0.814,0.334-2.213,0.334c-1.314,0-2.379-0.48-2.442-2.004c0-0.25,0-0.459,0.042-0.73l0.772-5.448
		c0.042-0.292,0.062-0.542,0.062-0.73c-0.021-0.543-0.334-0.751-0.981-0.751l-0.083-0.167c3.841,0,5.949-1.023,5.949-1.023
		l-1.148,5.427h0.126c0.918-4.029,2.588-5.427,4.091-5.427c1.189,0,1.983,0.772,1.983,1.732c0,1.211-0.877,2.484-2.526,2.484
		c-0.479,0-1.085-0.146-1.419-0.417C754.092,124.713,754.301,124.295,754.301,123.94z"/>
	<path d="M765.214,123.314c0-1.19,0.918-2.192,2.296-2.192c1.649,0,2.609,1.252,2.609,2.776c0,4.488-3.778,8.078-8.893,8.078
		c-1.482,0-2.567-0.689-2.567-1.92c0-0.751,0.104-1.482,0.251-2.38c0,0,0.709-4.404,0.709-5.197c0-0.334-0.188-0.501-0.417-0.501
		c-0.167,0-0.396,0.062-0.585,0.188l-0.083-0.146c0,0,1.147-0.897,3.151-0.897c0.939,0,2.359,0.292,2.422,2.004
		c0,0.229,0,0.459-0.042,0.709l-0.751,5.49c-0.042,0.271-0.084,0.605-0.084,0.876c0,0.501,0.146,0.96,0.689,0.96
		c2.316,0,5.322-2.964,5.322-4.864c0-1.21-0.98-1.837-2.171-1.837c-0.459,0-0.939,0.104-1.336,0.334
		C765.359,124.316,765.214,123.794,765.214,123.314z"/>
	<path d="M778.381,130.808c1.106,0,1.921-0.355,2.798-0.918l0.083,0.104c-1.189,1.315-2.943,1.983-5.135,1.983
		c-3.527,0-5.302-1.774-5.302-4.446c0-3.507,3.214-6.408,7.556-6.408c2.86,0,4.238,1.357,4.238,2.713
		c0,1.378-1.315,2.797-4.551,2.797c-0.668,0-1.545-0.062-2.255-0.229c-0.041,0.25-0.062,0.647-0.062,0.981
		C775.751,129.514,776.648,130.808,778.381,130.808z M778.945,122.312c0-0.73-0.251-1.023-0.564-1.023
		c-0.688,0-2.066,1.649-2.546,4.947C777.338,126.091,778.945,124.045,778.945,122.312z"/>
	<path d="M791.049,123.94c0-0.25-0.125-0.605-0.501-0.605c-1.128,0-2.275,3.925-2.275,6.972c0,0.563,0.083,1.064,0.229,1.336
		c0,0-0.814,0.334-2.213,0.334c-1.314,0-2.379-0.48-2.442-2.004c0-0.25,0-0.459,0.042-0.73l0.772-5.448
		c0.042-0.292,0.062-0.542,0.062-0.73c-0.021-0.543-0.334-0.751-0.981-0.751l-0.083-0.167c3.841,0,5.949-1.023,5.949-1.023
		l-1.148,5.427h0.126c0.918-4.029,2.588-5.427,4.091-5.427c1.189,0,1.983,0.772,1.983,1.732c0,1.211-0.877,2.484-2.526,2.484
		c-0.479,0-1.085-0.146-1.419-0.417C790.84,124.713,791.049,124.295,791.049,123.94z"/>
</g>
<g>
</g>
<g>
</g>
<g>
</g>
<g>
</g>
<g>
</g>
<g>
</g>
<g>
</g>
<g>
</g>
<g>
</g>
<g>
</g>
<g>
</g>
<g>
</g>
<g>
</g>
<g>
</g>
<g>
</g>
</svg>
