<?xml version="1.0" encoding="utf-8"?>
<!-- Generator: Adobe Illustrator 16.0.4, SVG Export Plug-In . SVG Version: 6.00 Build 0)  -->
<!DOCTYPE svg PUBLIC "-//W3C//DTD SVG 1.1//EN" "http://www.w3.org/Graphics/SVG/1.1/DTD/svg11.dtd">
<svg version="1.1" id="Layer_1" xmlns="http://www.w3.org/2000/svg" xmlns:xlink="http://www.w3.org/1999/xlink" x="0px" y="0px"
	 width="513.825px" height="132.897px" viewBox="0 0 513.825 132.897" enable-background="new 0 0 513.825 132.897"
	 xml:space="preserve">
<g>
	<path fill="#2100FF" d="M45.99,68.597c-7.119,26.25-19.465,28.919-27.585,28.919c-6.117,0-11.568-3.67-11.568-10.233
		c0-4.004,0.556-7.897,1.335-12.68c0,0,3.782-23.47,3.782-27.697c0-1.78-1.001-2.669-2.225-2.669c-0.89,0-2.113,0.334-3.114,1.001
		L6.17,44.459c0,0,6.118-4.783,16.795-4.783c5.005,0,12.568,1.557,12.902,10.678c0,1.223,0,2.447-0.222,3.782l-3.56,26.139
		c-0.223,1.446-0.556,4.671-0.556,6.562c0.111,1.668,0.667,2.225,1.557,2.225c5.116,0,14.682-21.913,14.682-40.488
		c0-3.003-0.445-5.672-1.224-7.119c0,0,3.448-1.779,10.901-1.779c7.564,0,13.57,2.558,13.903,10.678c0,1.335,0,2.447-0.222,3.893
		l-5.339,37.596c-3.559,24.804-22.801,33.48-42.712,33.48c-14.125,0-20.8-4.895-20.8-12.458c0-5.117,4.561-9.01,10.567-9.01
		c4.227,0,6.896,1.668,8.453,3.004c-2.446,3.226-4.226,7.897-4.226,11.679c0,3.226,1.334,5.673,4.894,5.673
		c10.456,0,14.904-9.455,17.463-21.58l7.23-34.035H45.99z"/>
	<path fill="#2100FF" d="M144.095,63.924c0,16.685-15.127,33.591-39.263,33.591c-15.795,0-27.808-9.343-27.808-24.248
		c0-16.685,15.35-33.591,39.375-33.591C132.083,39.677,144.095,49.02,144.095,63.924z M118.401,55.026
		c0-9.121-1.78-14.46-4.783-14.46c-5.673,0-11.124,26.917-11.124,41.377c0,9.343,1.891,14.682,4.895,14.682
		C113.062,96.625,118.401,69.486,118.401,55.026z"/>
	<path fill="#2100FF" d="M203.827,39.677c7.007,0,12.68,2.558,13.013,10.678c0,1.335,0,2.447-0.222,3.893l-4.116,29.031
		c-0.223,1.557-0.334,2.893-0.334,3.893c0.111,2.892,1.78,4.004,5.228,4.004l0.445,0.89c-20.466,0-31.701,5.45-31.701,5.45
		l6.007-28.919h-0.668c-7.118,26.25-19.465,28.919-27.584,28.919c-6.118,0-11.568-3.67-11.568-10.233
		c0-4.004,0.556-7.897,1.335-12.68c0,0,3.782-23.47,3.782-27.697c0-1.78-1.001-2.669-2.225-2.669c-0.89,0-2.113,0.334-3.115,1.001
		l-0.444-0.779c0,0,6.117-4.783,16.795-4.783c5.005,0,12.569,1.557,12.903,10.678c0,1.223,0,2.447-0.223,3.782l-3.56,26.139
		c-0.223,1.446-0.556,4.671-0.556,6.562c0.111,1.668,0.667,2.225,1.557,2.225c5.117,0,14.682-21.913,14.682-40.488
		c0-3.003-0.445-5.672-1.223-7.119C192.036,41.456,196.374,39.677,203.827,39.677z"/>
	<path fill="#2100FF" d="M227.297,17.431c16.907,0,31.923-5.562,31.923-5.562l-7.119,47.162h0.556
		c3.782-12.236,11.234-19.354,20.8-19.354c11.123,0,17.463,7.563,17.463,19.576c0,20.467-16.351,38.263-39.931,38.263
		c-20.8,0-25.249-9.899-25.249-20.132c0-3.003,0.222-5.673,0.667-8.787l6.34-44.492c0.667-4.338-1.112-5.673-5.117-5.673
		L227.297,17.431z M248.542,89.507c0,3.448,0.333,7.119,2.781,7.119c6.451,0,13.347-29.476,13.347-43.713
		c0-4.671-1.335-5.895-2.892-5.895C256.106,47.018,248.542,68.708,248.542,89.507z"/>
	<path fill="#FF3D00" d="M311.833,97.516c-7.008,0-12.68-2.558-13.014-10.678c0-1.335,0-2.447,0.222-3.893l4.116-29.031
		c0.222-1.557,0.333-2.892,0.333-3.893c-0.111-2.892-1.78-4.004-5.228-4.004l-0.445-0.89c20.466,0,31.7-5.45,31.7-5.45l-6.006,28.92
		h0.667c7.119-26.25,19.132-28.92,27.251-28.92c6.118,0,11.568,3.67,11.568,10.233c0,4.004-0.556,7.897-1.335,12.68
		c0,0-3.781,23.47-3.781,27.697c0,1.78,1,2.669,2.224,2.669c0.89,0,2.113-0.333,3.114-1.001l0.445,0.779
		c0,0-6.117,4.783-16.795,4.783c-5.005,0-12.57-1.557-12.903-10.678c0-1.223,0-2.447,0.222-3.782l3.559-26.139
		c0.223-1.446,0.557-4.671,0.557-6.562c-0.111-1.668-0.667-2.225-1.557-2.225c-5.117,0-14.349,21.913-14.349,40.488
		c0,3.003,0.446,5.672,1.224,7.119C323.623,95.737,319.286,97.516,311.833,97.516z"/>
	<path fill="#FF3D00" d="M423.731,39.677c7.007,0,12.68,2.558,13.014,10.678c0,1.335,0,2.447-0.223,3.893l-4.115,29.031
		c-0.223,1.557-0.334,2.893-0.334,3.893c0.111,2.892,1.779,4.004,5.228,4.004l0.445,0.89c-20.466,0-31.7,5.45-31.7,5.45
		l6.006-28.919h-0.667c-7.119,26.25-19.465,28.919-27.585,28.919c-6.117,0-11.567-3.67-11.567-10.233
		c0-4.004,0.556-7.897,1.335-12.68c0,0,3.781-23.47,3.781-27.697c0-1.78-1-2.669-2.224-2.669c-0.89,0-2.114,0.334-3.115,1.001
		l-0.445-0.779c0,0,6.117-4.783,16.795-4.783c5.005,0,12.568,1.557,12.902,10.678c0,1.223,0,2.447-0.223,3.782l-3.559,26.139
		c-0.223,1.446-0.557,4.671-0.557,6.562c0.111,1.668,0.668,2.225,1.557,2.225c5.117,0,14.684-21.913,14.684-40.488
		c0-3.003-0.446-5.672-1.225-7.119C411.94,41.456,416.278,39.677,423.731,39.677z"/>
	<path fill="#FF3D00" d="M447.202,17.431c16.906,0,31.923-5.562,31.923-5.562l-7.119,47.162h0.556
		c3.783-12.236,11.235-19.354,20.802-19.354c11.122,0,17.462,7.563,17.462,19.576c0,20.467-16.351,38.263-39.931,38.263
		c-20.801,0-25.249-9.899-25.249-20.132c0-3.003,0.222-5.673,0.666-8.787l6.341-44.492c0.667-4.338-1.112-5.673-5.116-5.673
		L447.202,17.431z M468.447,89.507c0,3.448,0.333,7.119,2.78,7.119c6.452,0,13.347-29.476,13.347-43.713
		c0-4.671-1.334-5.895-2.892-5.895C476.011,47.018,468.447,68.708,468.447,89.507z"/>
</g>
<g>
	<path d="M83.416,122.167c-0.063,0.413-0.095,0.699-0.095,0.889c0,0.477,0.254,0.731,0.635,0.731c0.286,0,0.572-0.096,0.889-0.286
		l0.127,0.223c0,0-1.62,1.366-4.67,1.366c-1.43,0-3.59-0.604-3.59-3.145c0-0.794,0.096-1.588,0.413-2.573h-0.254
		c-0.953,3.78-2.668,5.718-6.068,5.718c-3.208,0-4.956-2.605-4.956-6.036c0-5.877,4.003-10.483,10.738-10.483
		c2.192,0,3.686,0.826,5.846,0.826c1.842,0,2.955-0.826,2.955-0.826L83.416,122.167z M77.602,111.874c0-2.224-0.381-3.05-1.144-3.05
		c-2.097,0-3.145,6.862-3.145,10.484c0,2.827,0.604,3.463,1.175,3.463C76.045,122.771,77.602,116.163,77.602,111.874z"/>
	<path d="M106.416,110.285c0-0.826-0.572-1.461-1.906-1.461c-0.953,0-1.969,0.635-1.969,1.811c0,3.463,7.402,4.066,7.402,8.736
		c0,3.558-3.05,5.718-8.609,5.718c-5.305,0-6.862-1.97-6.862-3.78c0-1.366,1.112-2.446,2.637-2.446c0.826,0,1.557,0.286,2.097,0.794
		c-0.445,0.54-0.826,1.429-0.826,2.255c0,1.493,0.858,2.859,2.605,2.859c1.398,0,2.383-0.89,2.383-2.065
		c0-3.399-7.211-4.066-7.211-8.673c0-3.399,3.304-5.464,7.942-5.464c4.13,0,6.036,1.43,6.036,3.24c0,1.208-0.953,2.097-2.414,2.097
		c-0.953,0-1.938-0.477-2.446-1.398C105.971,111.874,106.416,111.016,106.416,110.285z"/>
	<path d="M130.815,115.495c0,4.766-4.321,9.594-11.214,9.594c-4.511,0-7.942-2.668-7.942-6.925c0-4.766,4.384-9.594,11.246-9.594
		C127.384,108.57,130.815,111.238,130.815,115.495z M123.476,112.954c0-2.605-0.508-4.13-1.366-4.13
		c-1.62,0-3.177,7.688-3.177,11.818c0,2.669,0.541,4.194,1.398,4.194C121.951,124.835,123.476,117.084,123.476,112.954z"/>
	<path d="M139.583,117.973c0,3.018,1.207,5.337,3.844,5.337c1.748,0,3.177-0.508,4.575-1.366l0.096,0.127
		c-2.001,2.033-4.416,3.018-7.752,3.018c-5.4,0-8.26-2.7-8.26-6.83c0-5.274,5.083-9.689,11.31-9.689
		c4.035,0,6.322,1.588,6.322,3.749c0,1.62-1.271,2.828-3.431,2.828c-0.985,0-2.192-0.35-2.795-0.953
		c0.667-0.858,1.334-2.383,1.334-3.59c0-0.985-0.317-1.779-1.239-1.779C141.711,108.824,139.583,112.89,139.583,117.973z"/>
	<path d="M158.264,122.199c-0.063,0.413-0.095,0.667-0.095,0.857c0,0.477,0.254,0.731,0.635,0.731c0.286,0,0.572-0.096,0.89-0.286
		l0.127,0.223c0,0-1.748,1.366-4.797,1.366c-1.429,0-3.59-0.445-3.685-3.05c0-0.349,0-0.667,0.063-1.08l1.208-8.673
		c0.032-0.222,0.063-0.508,0.063-0.635c0-0.89-0.477-1.208-1.493-1.208l-0.095-0.286c4.829,0,9.118-1.588,9.118-1.588
		L158.264,122.199z M153.53,104.885c0-1.97,1.398-3.559,4.098-3.559c2.224,0,3.272,1.176,3.272,2.732c0,1.938-1.43,3.463-4.13,3.463
		C154.546,107.521,153.53,106.377,153.53,104.885z"/>
	<path d="M179.581,122.167c-0.063,0.413-0.095,0.699-0.095,0.889c0,0.477,0.254,0.731,0.635,0.731c0.286,0,0.572-0.096,0.889-0.286
		l0.127,0.223c0,0-1.62,1.366-4.67,1.366c-1.43,0-3.59-0.604-3.59-3.145c0-0.794,0.096-1.588,0.413-2.573h-0.254
		c-0.953,3.78-2.668,5.718-6.068,5.718c-3.208,0-4.956-2.605-4.956-6.036c0-5.877,4.003-10.483,10.738-10.483
		c2.192,0,3.686,0.826,5.846,0.826c1.842,0,2.955-0.826,2.955-0.826L179.581,122.167z M173.767,111.874
		c0-2.224-0.381-3.05-1.144-3.05c-2.097,0-3.145,6.862-3.145,10.484c0,2.827,0.604,3.463,1.175,3.463
		C172.21,122.771,173.767,116.163,173.767,111.874z"/>
	<path d="M190.604,122.199c-0.063,0.413-0.095,0.667-0.095,0.857c0,0.477,0.254,0.731,0.635,0.731c0.286,0,0.572-0.096,0.89-0.286
		l0.127,0.223c0,0-1.747,1.366-4.797,1.366c-1.43,0-3.59-0.445-3.686-3.05c0-0.349,0-0.667,0.064-1.08l2.351-16.615
		c0.032-0.222,0.063-0.508,0.063-0.635c0-0.89-0.477-1.207-1.493-1.207l-0.095-0.286c4.829,0,9.118-1.588,9.118-1.588
		L190.604,122.199z"/>
	<path d="M201.978,122.199c-0.063,0.413-0.095,0.667-0.095,0.857c0,0.477,0.254,0.731,0.635,0.731c0.286,0,0.572-0.096,0.89-0.286
		l0.127,0.223c0,0-1.748,1.366-4.797,1.366c-1.429,0-3.59-0.445-3.685-3.05c0-0.349,0-0.667,0.063-1.08l1.208-8.673
		c0.032-0.222,0.063-0.508,0.063-0.635c0-0.89-0.477-1.208-1.493-1.208l-0.095-0.286c4.829,0,9.118-1.588,9.118-1.588
		L201.978,122.199z M197.244,104.885c0-1.97,1.398-3.559,4.099-3.559c2.224,0,3.272,1.176,3.272,2.732
		c0,1.938-1.43,3.463-4.13,3.463C198.261,107.521,197.244,106.377,197.244,104.885z"/>
	<path d="M218.657,113.875c-1.398,1.08-2.986,1.366-4.575,1.366c-2.891,0-4.639-1.303-6.164-1.303c-0.985,0-1.08,0.826-1.08,0.826
		l-0.286-0.063c0.254-3.082,1.588-6.544,5.115-6.544c3.558,0,7.021,2.891,9.594,2.891c1.048,0,1.557-0.763,1.557-1.398
		c0-0.318-0.159-0.699-0.572-0.89c0-0.222,0.159-0.445,0.445-0.445c0.349,0,0.635,0.318,0.635,0.794
		c0,3.812-9.753,8.228-12.771,10.229l0.095,0.159c0.858-0.508,2.319-0.921,3.685-0.921c2.446,0,4.67,1.176,6.417,1.176
		c0.73,0,0.857-0.763,0.857-0.763l0.286,0.063c-0.254,3.082-1.875,6.926-5.401,6.926c-4.035,0-7.243-3.082-9.499-3.082
		c-0.826,0-1.398,0.667-1.398,1.303c0,0.286,0.095,0.667,0.572,0.857c0,0.223-0.159,0.445-0.477,0.445s-0.604-0.286-0.604-0.794
		c0-4.13,11.468-8.418,13.661-10.738L218.657,113.875z"/>
	<path d="M235.24,123.311c1.684,0,2.923-0.54,4.257-1.398l0.127,0.159c-1.811,2.001-4.479,3.018-7.815,3.018
		c-5.369,0-8.069-2.7-8.069-6.767c0-5.337,4.893-9.753,11.5-9.753c4.352,0,6.449,2.065,6.449,4.13c0,2.097-2.001,4.257-6.925,4.257
		c-1.017,0-2.351-0.095-3.431-0.349c-0.063,0.381-0.095,0.984-0.095,1.493C231.237,121.341,232.604,123.311,235.24,123.311z
		 M236.098,110.38c0-1.112-0.381-1.557-0.857-1.557c-1.048,0-3.145,2.51-3.876,7.529
		C233.652,116.131,236.098,113.018,236.098,110.38z"/>
	<path d="M247.535,125.089c-3.208,0-4.956-2.605-4.956-6.036c0-5.877,4.638-10.483,11.374-10.483c0.381,0,0.794,0.032,1.112,0.095
		l0.667-4.67c0.159-1.144-0.381-1.493-1.493-1.493l-0.095-0.286c4.86,0,9.054-1.588,9.054-1.588l-3.05,21.54
		c-0.063,0.413-0.095,0.699-0.095,0.889c0,0.477,0.254,0.731,0.635,0.731c0.286,0,0.572-0.096,0.889-0.286l0.127,0.223
		c0,0-1.62,1.366-4.67,1.366c-1.43,0-3.59-0.604-3.59-3.145c0-0.794,0.096-1.588,0.413-2.573h-0.254
		C252.649,123.151,250.934,125.089,247.535,125.089z M254.333,111.874c0-2.224-0.381-3.05-1.144-3.05
		c-2.097,0-3.145,6.862-3.145,10.484c0,2.827,0.604,3.463,1.175,3.463C252.776,122.771,254.333,116.163,254.333,111.874z"/>
	<path d="M279.558,117.973c0,3.018,1.207,5.337,3.844,5.337c1.748,0,3.177-0.508,4.575-1.366l0.096,0.127
		c-2.001,2.033-4.416,3.018-7.752,3.018c-5.4,0-8.26-2.7-8.26-6.83c0-5.274,5.083-9.689,11.31-9.689
		c4.035,0,6.322,1.588,6.322,3.749c0,1.62-1.271,2.828-3.431,2.828c-0.985,0-2.192-0.35-2.795-0.953
		c0.667-0.858,1.334-2.383,1.334-3.59c0-0.985-0.317-1.779-1.239-1.779C281.686,108.824,279.558,112.89,279.558,117.973z"/>
	<path d="M309.452,115.495c0,4.766-4.321,9.594-11.214,9.594c-4.511,0-7.942-2.668-7.942-6.925c0-4.766,4.384-9.594,11.246-9.594
		C306.021,108.57,309.452,111.238,309.452,115.495z M302.113,112.954c0-2.605-0.508-4.13-1.366-4.13
		c-1.621,0-3.177,7.688-3.177,11.818c0,2.669,0.54,4.194,1.398,4.194C300.588,124.835,302.113,117.084,302.113,112.954z"/>
	<path d="M315.425,125.089c-2.001,0-3.622-0.73-3.717-3.05c0-0.381,0-0.699,0.063-1.112l1.176-8.292
		c0.063-0.445,0.095-0.826,0.095-1.112c-0.032-0.826-0.508-1.144-1.493-1.144l-0.127-0.254c5.846,0,9.054-1.557,9.054-1.557
		l-1.715,8.26h0.19c2.033-7.498,5.464-8.26,7.784-8.26c1.747,0,3.304,1.048,3.304,2.922c0,1.748-0.667,3.59-1.017,5.337h0.191
		c1.811-7.243,5.051-8.26,7.624-8.26c1.748,0,3.304,1.048,3.304,2.922c0,1.144-0.159,2.256-0.381,3.622c0,0-1.08,6.703-1.08,7.91
		c0,0.508,0.286,0.763,0.635,0.763c0.254,0,0.604-0.096,0.89-0.286l0.127,0.223c0,0-1.747,1.366-4.797,1.366
		c-1.43,0-3.59-0.445-3.685-3.05c0-0.349,0-0.699,0.063-1.08l1.017-7.466c0.063-0.413,0.159-1.334,0.159-1.874
		c-0.032-0.477-0.19-0.635-0.445-0.635c-1.43,0-4.066,6.767-4.066,11.563c0,0.858,0.127,1.62,0.35,2.033
		c0,0-1.334,0.508-3.463,0.508c-2.001,0-3.622-0.73-3.717-3.05c0-0.381,0-0.699,0.063-1.112l1.017-7.434
		c0.063-0.413,0.159-1.334,0.159-1.874c-0.032-0.477-0.19-0.635-0.445-0.635c-1.461,0-4.098,6.258-4.098,11.563
		c0,0.858,0.127,1.62,0.35,2.033C318.792,124.581,317.554,125.089,315.425,125.089z"/>
	<path d="M346.876,125.089c-2.001,0-3.622-0.73-3.717-3.05c0-0.381,0-0.699,0.063-1.112l1.175-8.292
		c0.064-0.445,0.096-0.826,0.096-1.112c-0.032-0.826-0.508-1.144-1.493-1.144l-0.127-0.254c5.845,0,9.054-1.557,9.054-1.557
		l-1.715,8.26h0.19c2.033-7.498,5.464-8.26,7.784-8.26c1.747,0,3.304,1.048,3.304,2.922c0,1.748-0.667,3.59-1.017,5.337h0.19
		c1.811-7.243,5.051-8.26,7.625-8.26c1.747,0,3.304,1.048,3.304,2.922c0,1.144-0.159,2.256-0.381,3.622c0,0-1.08,6.703-1.08,7.91
		c0,0.508,0.286,0.763,0.635,0.763c0.254,0,0.604-0.096,0.89-0.286l0.127,0.223c0,0-1.747,1.366-4.797,1.366
		c-1.43,0-3.59-0.445-3.685-3.05c0-0.349,0-0.699,0.063-1.08l1.017-7.466c0.063-0.413,0.159-1.334,0.159-1.874
		c-0.032-0.477-0.19-0.635-0.445-0.635c-1.43,0-4.066,6.767-4.066,11.563c0,0.858,0.127,1.62,0.35,2.033
		c0,0-1.334,0.508-3.463,0.508c-2.001,0-3.622-0.73-3.717-3.05c0-0.381,0-0.699,0.063-1.112l1.017-7.434
		c0.063-0.413,0.159-1.334,0.159-1.874c-0.032-0.477-0.19-0.635-0.445-0.635c-1.461,0-4.098,6.258-4.098,11.563
		c0,0.858,0.127,1.62,0.35,2.033C350.244,124.581,349.005,125.089,346.876,125.089z"/>
	<path d="M391.194,122.167c-0.063,0.413-0.095,0.699-0.095,0.889c0,0.477,0.254,0.731,0.635,0.731c0.286,0,0.572-0.096,0.89-0.286
		l0.127,0.223c0,0-1.62,1.366-4.67,1.366c-1.43,0-3.59-0.604-3.59-3.145c0-0.794,0.096-1.588,0.413-2.573h-0.254
		c-0.953,3.78-2.668,5.718-6.068,5.718c-3.208,0-4.956-2.605-4.956-6.036c0-5.877,4.003-10.483,10.738-10.483
		c2.192,0,3.686,0.826,5.846,0.826c1.843,0,2.954-0.826,2.954-0.826L391.194,122.167z M385.381,111.874
		c0-2.224-0.381-3.05-1.144-3.05c-2.097,0-3.145,6.862-3.145,10.484c0,2.827,0.604,3.463,1.175,3.463
		C383.824,122.771,385.381,116.163,385.381,111.874z"/>
	<path d="M399.328,125.089c-2.001,0-3.621-0.73-3.717-3.05c0-0.381,0-0.699,0.063-1.112l1.176-8.292
		c0.063-0.445,0.095-0.826,0.095-1.112c-0.031-0.826-0.508-1.144-1.493-1.144l-0.127-0.254c5.846,0,9.055-1.557,9.055-1.557
		l-1.716,8.26h0.19c2.033-7.498,5.465-8.26,7.783-8.26c1.748,0,3.305,1.048,3.305,2.922c0,1.144-0.159,2.256-0.382,3.622
		c0,0-1.08,6.703-1.08,7.91c0,0.508,0.286,0.763,0.636,0.763c0.254,0,0.604-0.096,0.89-0.286l0.127,0.223
		c0,0-1.747,1.366-4.797,1.366c-1.43,0-3.59-0.445-3.686-3.05c0-0.349,0-0.699,0.063-1.08l1.017-7.466
		c0.063-0.413,0.159-1.334,0.159-1.874c-0.032-0.477-0.191-0.635-0.445-0.635c-1.461,0-4.098,6.258-4.098,11.563
		c0,0.858,0.127,1.62,0.349,2.033C402.695,124.581,401.457,125.089,399.328,125.089z"/>
	<path d="M420.931,125.089c-3.208,0-4.955-2.605-4.955-6.036c0-5.877,4.638-10.483,11.373-10.483c0.381,0,0.794,0.032,1.111,0.095
		l0.667-4.67c0.159-1.144-0.381-1.493-1.492-1.493l-0.096-0.286c4.86,0,9.054-1.588,9.054-1.588l-3.05,21.54
		c-0.063,0.413-0.095,0.699-0.095,0.889c0,0.477,0.254,0.731,0.635,0.731c0.286,0,0.572-0.096,0.89-0.286l0.127,0.223
		c0,0-1.62,1.366-4.67,1.366c-1.43,0-3.59-0.604-3.59-3.145c0-0.794,0.096-1.588,0.413-2.573h-0.254
		C426.046,123.151,424.33,125.089,420.931,125.089z M427.729,111.874c0-2.224-0.381-3.05-1.144-3.05
		c-2.097,0-3.146,6.862-3.146,10.484c0,2.827,0.604,3.463,1.176,3.463C426.173,122.771,427.729,116.163,427.729,111.874z"/>
	<path d="M447.427,115.146l-0.031,0.349h-9.881l0.032-0.349H447.427z"/>
	<path d="M456.1,122.199c-0.064,0.413-0.096,0.667-0.096,0.857c0,0.477,0.254,0.731,0.636,0.731c0.285,0,0.571-0.096,0.889-0.286
		l0.128,0.223c0,0-1.748,1.366-4.798,1.366c-1.43,0-3.59-0.445-3.685-3.05c0-0.349,0-0.667,0.063-1.08l2.351-16.615
		c0.032-0.222,0.063-0.508,0.063-0.635c0-0.89-0.477-1.207-1.493-1.207l-0.095-0.286c4.828,0,9.117-1.588,9.117-1.588L456.1,122.199
		z"/>
	<path d="M467.473,122.199c-0.063,0.413-0.095,0.667-0.095,0.857c0,0.477,0.254,0.731,0.635,0.731c0.286,0,0.572-0.096,0.89-0.286
		l0.127,0.223c0,0-1.747,1.366-4.797,1.366c-1.43,0-3.59-0.445-3.685-3.05c0-0.349,0-0.667,0.063-1.08l1.207-8.673
		c0.031-0.222,0.063-0.508,0.063-0.635c0-0.89-0.477-1.208-1.493-1.208l-0.096-0.286c4.829,0,9.118-1.588,9.118-1.588
		L467.473,122.199z M462.739,104.885c0-1.97,1.398-3.559,4.099-3.559c2.224,0,3.271,1.176,3.271,2.732
		c0,1.938-1.429,3.463-4.13,3.463C463.756,107.521,462.739,106.377,462.739,104.885z"/>
	<path d="M475.923,125.089c-2.001,0-3.621-0.73-3.717-3.05c0-0.381,0-0.699,0.063-1.112l1.176-8.292
		c0.063-0.445,0.095-0.826,0.095-1.112c-0.031-0.826-0.508-1.144-1.493-1.144l-0.127-0.254c5.846,0,9.055-1.557,9.055-1.557
		l-1.716,8.26h0.19c2.033-7.498,5.465-8.26,7.783-8.26c1.748,0,3.305,1.048,3.305,2.922c0,1.144-0.159,2.256-0.382,3.622
		c0,0-1.08,6.703-1.08,7.91c0,0.508,0.286,0.763,0.636,0.763c0.254,0,0.604-0.096,0.89-0.286l0.127,0.223
		c0,0-1.747,1.366-4.797,1.366c-1.43,0-3.591-0.445-3.686-3.05c0-0.349,0-0.699,0.063-1.08l1.017-7.466
		c0.063-0.413,0.159-1.334,0.159-1.874c-0.032-0.477-0.191-0.635-0.445-0.635c-1.461,0-4.098,6.258-4.098,11.563
		c0,0.858,0.127,1.62,0.35,2.033C479.291,124.581,478.052,125.089,475.923,125.089z"/>
	<path d="M503.437,123.311c1.684,0,2.923-0.54,4.257-1.398l0.127,0.159c-1.811,2.001-4.479,3.018-7.814,3.018
		c-5.369,0-8.069-2.7-8.069-6.767c0-5.337,4.892-9.753,11.5-9.753c4.353,0,6.449,2.065,6.449,4.13c0,2.097-2.002,4.257-6.926,4.257
		c-1.017,0-2.351-0.095-3.431-0.349c-0.064,0.381-0.096,0.984-0.096,1.493C499.434,121.341,500.8,123.311,503.437,123.311z
		 M504.294,110.38c0-1.112-0.381-1.557-0.857-1.557c-1.049,0-3.146,2.51-3.876,7.529
		C501.848,116.131,504.294,113.018,504.294,110.38z"/>
</g>
</svg>
